<svg xmlns="http://www.w3.org/2000/svg" width="184" height="38" viewBox="0 0 184 38" fill="none"><path d="M181.867 11.3589C181.433 11.3591 181.009 11.4913 180.653 11.7376C180.297 11.9839 180.025 12.3327 179.873 12.7372L175.888 23.2728L171.905 12.7372C171.815 12.4659 171.671 12.2155 171.481 12.0009C171.292 11.7864 171.061 11.6122 170.802 11.4887C170.543 11.3652 170.261 11.295 169.974 11.2823C169.688 11.2697 169.401 11.3148 169.132 11.4149C168.863 11.5151 168.617 11.6682 168.409 11.8652C168.202 12.0622 168.036 12.2989 167.922 12.5612C167.808 12.8235 167.749 13.106 167.747 13.3917C167.746 13.6773 167.803 13.9603 167.914 14.2237L173.605 29.2708L173.097 30.6511C172.694 31.6809 172.235 32.1116 171.603 32.2718C171.532 32.291 171.46 32.3064 171.388 32.3179C171.369 32.3179 171.355 32.3179 171.335 32.3179C170.93 32.4368 170.569 32.6707 170.295 32.991C170.022 33.3113 169.849 33.704 169.797 34.1209V34.6578C169.861 35.1733 170.111 35.6481 170.5 35.9946C170.889 36.341 171.391 36.5358 171.913 36.543H171.943C172.042 36.543 172.145 36.5249 172.235 36.5189C172.249 36.5189 172.253 36.5189 172.261 36.5189C175.552 36.2164 176.144 34.4455 177.481 31.0418L183.866 14.2237C183.987 13.9023 184.027 13.5566 183.984 13.2162C183.942 12.8757 183.817 12.5507 183.62 12.2687C183.424 11.9867 183.162 11.7561 182.856 11.5967C182.551 11.4372 182.212 11.3536 181.867 11.3529V11.3589Z" fill="white"></path><path d="M66.7091 12.1964C66.4901 11.9779 66.2258 11.8095 65.9348 11.7029C65.6437 11.5963 65.3328 11.5542 65.0236 11.5793C64.4768 11.6339 63.9705 11.8906 63.6048 12.2986C63.239 12.7067 63.0404 13.2363 63.0482 13.783V27.3537C63.0466 27.9176 63.2697 28.4592 63.6686 28.8598C64.0676 29.2605 64.6098 29.4875 65.1767 29.4912C65.7547 29.4771 66.3042 29.2387 66.7079 28.827C67.1116 28.4152 67.3375 27.8627 67.3373 27.2875V13.7089C67.3382 13.428 67.2831 13.1497 67.1752 12.8901C67.0674 12.6305 66.909 12.3947 66.7091 12.1964ZM65.1767 4.01871C63.6745 4.01871 62.7462 4.9703 62.7462 6.43674C62.7462 7.90319 63.6704 8.87682 65.1626 8.88283C65.8003 8.87854 66.4117 8.62908 66.8688 8.18662C67.326 7.74417 67.5934 7.14299 67.6152 6.50886C67.6414 5.00836 66.6708 4.01871 65.1767 4.01871Z" fill="white"></path><path d="M90.8697 11.361C88.5278 11.361 86.6068 12.563 85.4107 14.6164C84.1179 12.557 82.078 11.361 79.4341 11.361C77.3962 11.361 75.4752 12.4989 74.8167 14.0835V13.6828C74.8151 13.391 74.7531 13.1026 74.6344 12.8358C74.5157 12.5689 74.3429 12.3292 74.1269 12.1318C73.9109 11.9344 73.6562 11.7834 73.3789 11.6884C73.1016 11.5933 72.8075 11.5562 72.5151 11.5793C71.9734 11.632 71.4714 11.8849 71.1082 12.2882C70.745 12.6914 70.5471 13.2156 70.5537 13.757V27.3797C70.5525 27.67 70.6114 27.9574 70.7269 28.224C70.8425 28.4906 71.012 28.7306 71.225 28.929C71.4381 29.1274 71.69 29.2799 71.9649 29.377C72.2399 29.474 72.5321 29.5136 72.8232 29.4932C73.3713 29.4463 73.8813 29.1949 74.251 28.7896C74.6207 28.3843 74.8228 27.8549 74.8167 27.3076V20.5303C74.8167 17.6915 76.4276 15.602 78.683 15.602C81.0571 15.602 82.5835 17.5453 82.5835 20.4982V27.3517C82.5829 27.6634 82.651 27.9716 82.783 28.2544C82.9149 28.5372 83.1075 28.7878 83.3472 28.9887C83.5869 29.1896 83.8679 29.3358 84.1704 29.417C84.473 29.4983 84.7898 29.5127 85.0985 29.4592C85.604 29.3628 86.0593 29.0927 86.3847 28.696C86.7102 28.2994 86.885 27.8015 86.8786 27.2896V20.4982C86.8786 17.6935 88.5017 15.602 90.7207 15.602C93.121 15.602 94.6534 17.5453 94.6534 20.4982V27.3517C94.6524 27.9151 94.8753 28.4561 95.2737 28.8566C95.6721 29.257 96.2136 29.4845 96.7799 29.4892C97.3582 29.4756 97.9083 29.2375 98.3124 28.8257C98.7166 28.4138 98.9427 27.8611 98.9426 27.2855V20.4982C98.9426 15.0091 95.8254 11.361 90.8697 11.361Z" fill="white"></path><path d="M119.209 12.1903C118.991 11.9749 118.728 11.8087 118.439 11.7033C118.151 11.5979 117.842 11.5556 117.536 11.5793C116.992 11.6207 116.486 11.8724 116.126 12.2805C115.765 12.6884 115.566 13.2134 115.566 13.7569V14.0815C114.815 12.4688 112.506 11.3589 110.19 11.3589C104.936 11.3589 101.606 15.009 101.606 20.4982C101.597 21.6055 101.747 22.7084 102.051 23.7737C103.122 27.4177 106.062 29.6655 110.188 29.6655C110.778 29.6675 111.366 29.6002 111.94 29.4652C113.591 29.0645 115.023 28.145 115.564 26.983V27.3837C115.564 27.662 115.62 27.9376 115.727 28.1948C115.834 28.452 115.991 28.6856 116.188 28.8824C116.386 29.0792 116.621 29.2354 116.88 29.3419C117.138 29.4484 117.415 29.5032 117.695 29.5032C117.975 29.5032 118.252 29.4484 118.51 29.3419C118.769 29.2354 119.004 29.0792 119.201 28.8824C119.399 28.6856 119.556 28.452 119.663 28.1948C119.77 27.9376 119.825 27.662 119.825 27.3837V13.6908C119.827 13.4127 119.774 13.1369 119.668 12.8794C119.562 12.6218 119.406 12.3877 119.209 12.1903ZM110.752 25.3964C107.84 25.3964 105.919 23.4591 105.919 20.4982C105.919 17.5373 107.84 15.602 110.752 15.602C113.571 15.602 115.585 17.6595 115.585 20.5303C115.585 23.401 113.619 25.3964 110.74 25.3964H110.752Z" fill="white"></path><path d="M58.4332 25.3383H48.0366L59.7159 8.35996C59.9173 8.06851 60.0747 7.74925 60.1831 7.41238C60.2885 7.07164 60.3421 6.71714 60.3421 6.36063C60.3424 6.0659 60.2843 5.77401 60.171 5.50167C60.0578 5.22933 59.8916 4.98188 59.6822 4.77347C59.4727 4.56507 59.224 4.39981 58.9502 4.28714C58.6765 4.17448 58.3831 4.11662 58.0868 4.11688H44.4482C44.1742 4.11688 43.9029 4.17057 43.6498 4.27487C43.3967 4.37917 43.1668 4.53205 42.973 4.72477C42.7793 4.9175 42.6257 5.14629 42.5208 5.3981C42.416 5.64991 42.362 5.91979 42.362 6.19235C42.362 6.4649 42.416 6.73479 42.5208 6.98659C42.6257 7.2384 42.7793 7.4672 42.973 7.65992C43.1668 7.85265 43.3967 8.00552 43.6498 8.10983C43.9029 8.21413 44.1742 8.26781 44.4482 8.26781H54.6072L42.7265 25.4966C42.3479 26.0457 42.145 26.6958 42.1445 27.3617C42.1488 27.9278 42.3779 28.4692 42.782 28.8678C43.186 29.2664 43.7322 29.4898 44.3012 29.4892H58.4271C58.7011 29.4892 58.9724 29.4355 59.2255 29.3312C59.4786 29.2269 59.7086 29.0741 59.9023 28.8813C60.096 28.6886 60.2497 28.4598 60.3545 28.208C60.4593 27.9562 60.5133 27.6863 60.5133 27.4138C60.5133 27.1412 60.4593 26.8713 60.3545 26.6195C60.2497 26.3677 60.096 26.1389 59.9023 25.9462C59.7086 25.7535 59.4786 25.6006 59.2255 25.4963C58.9724 25.392 58.7011 25.3383 58.4271 25.3383H58.4332Z" fill="white"></path><path d="M164.708 13.5346V27.4118C164.708 27.9785 164.485 28.5227 164.085 28.9268C163.686 29.3309 163.143 29.5624 162.573 29.5714H162.505C161.935 29.5624 161.392 29.3309 160.992 28.9268C160.593 28.5227 160.369 27.9785 160.37 27.4118V27.0792H160.354C159.774 28.2151 158.34 29.1166 156.715 29.5093C156.131 29.651 155.532 29.723 154.931 29.7236C154.615 29.7236 154.303 29.7116 154.001 29.6856C151.956 29.4995 150.043 28.6021 148.598 27.1513L138.067 16.6819C137.219 15.9106 136.053 15.4798 134.663 15.4798C131.844 15.4798 129.811 17.5092 129.748 20.358V20.6885C129.809 23.5313 131.798 25.4465 134.663 25.4465C136.039 25.4465 137.199 25.0198 138.044 24.2625C138.153 24.1646 138.257 24.0609 138.355 23.952L140.59 21.7303C140.635 21.6839 140.693 21.6513 140.757 21.6361C140.817 21.6216 140.879 21.6227 140.938 21.6391C140.998 21.6556 141.052 21.687 141.095 21.7303L141.389 22.0228L143.417 24.0401L143.84 24.4548C143.873 24.488 143.9 24.5273 143.918 24.5706C143.936 24.6139 143.945 24.6604 143.945 24.7073C143.945 24.7541 143.936 24.8006 143.918 24.8439C143.9 24.8872 143.873 24.9265 143.84 24.9597L142.261 26.5503L141.675 27.1393L141.121 27.6962C141.009 27.7984 140.892 27.8966 140.771 27.9947H140.761C139.319 29.1467 137.434 29.7877 135.211 29.7877C134.611 29.7872 134.012 29.7152 133.429 29.5734C131.768 29.1727 130.324 28.2492 129.76 27.0872H129.744V34.9003C129.748 35.2035 129.69 35.5043 129.572 35.784C129.454 36.0637 129.28 36.3162 129.059 36.5257C128.839 36.7351 128.578 36.8971 128.291 37.0014C128.005 37.1058 127.7 37.1502 127.396 37.132C126.846 37.0915 126.331 36.8454 125.955 36.443C125.579 36.0405 125.37 35.5116 125.37 34.9624V13.5266C125.371 12.9955 125.566 12.4828 125.92 12.0851C126.274 11.6874 126.762 11.432 127.291 11.367H127.821C128.351 11.4315 128.839 11.6867 129.194 12.0845C129.548 12.4823 129.744 12.9952 129.744 13.5266V13.8812C129.744 13.8912 129.756 13.8952 129.76 13.8812C130.543 12.2585 132.875 11.1486 135.211 11.1486H135.441C137.734 11.2097 139.918 12.1374 141.548 13.743L151.514 23.6896C152.515 24.7116 153.872 25.3126 155.306 25.3684H155.477C157.785 25.3684 159.524 24.1263 160.145 22.163C160.292 21.6813 160.365 21.1801 160.362 20.6765V20.2498C160.369 19.4005 160.147 18.5649 159.72 17.8298C158.884 16.4274 157.372 15.544 155.517 15.544C154.128 15.544 152.962 15.9787 152.112 16.746L152.098 16.76C152.058 16.796 152.017 16.8361 151.977 16.8742C151.937 16.9122 151.899 16.9543 151.86 16.9964L149.563 19.2001C149.53 19.2335 149.49 19.26 149.446 19.2782C149.403 19.2963 149.356 19.3056 149.309 19.3056C149.262 19.3056 149.215 19.2963 149.171 19.2782C149.128 19.26 149.088 19.2335 149.055 19.2001L146.409 16.5516C146.342 16.4848 146.305 16.3944 146.305 16.3002C146.305 16.206 146.342 16.1156 146.409 16.0488L148.437 13.9453L149.025 13.3603C149.085 13.3002 149.146 13.2441 149.206 13.188C149.267 13.1319 149.333 13.0778 149.398 13.0238L149.561 12.8975C150.984 11.8197 152.817 11.2187 154.963 11.2187C157.251 11.2187 159.532 12.2825 160.362 13.8491V13.5346C160.362 12.9868 160.572 12.4595 160.948 12.0594C161.324 11.6592 161.838 11.4161 162.388 11.379H162.68C163.229 11.4156 163.745 11.6586 164.121 12.0587C164.498 12.4589 164.707 12.9865 164.708 13.5346Z" fill="white"></path><path d="M31.3691 31.4365C31.3681 31.9473 31.1632 32.4367 30.7996 32.7973C30.436 33.158 29.9434 33.3602 29.43 33.3597H5.49338C4.98012 33.3597 4.4878 33.1572 4.12431 32.7967C3.76081 32.4362 3.5558 31.9471 3.5542 31.4365C3.55333 31.0239 3.68765 30.6223 3.9368 30.2926L3.94687 30.2825L4.39391 29.6495L22.517 3.85644H5.55177C5.03315 3.85723 4.53459 3.65711 4.16171 3.29849C3.78884 2.93988 3.57095 2.45092 3.5542 1.93523C3.55313 1.42373 3.75607 0.932698 4.11849 0.569886C4.48091 0.207075 4.9732 0.0021213 5.48733 0H29.2487C29.586 0.000105914 29.9172 0.0890156 30.2088 0.257698C30.5004 0.426381 30.7419 0.668827 30.9087 0.960411C31.0756 1.252 31.162 1.58233 31.159 1.91786C31.1561 2.25339 31.0639 2.58217 30.8919 2.87079L30.765 3.0571L30.4106 3.57397L12.4849 29.5153H29.4219C29.676 29.5137 29.928 29.5619 30.1634 29.6572C30.3988 29.7525 30.613 29.893 30.7938 30.0706C30.9746 30.2483 31.1185 30.4596 31.2172 30.6926C31.3159 30.9256 31.3676 31.1756 31.3691 31.4285V31.4365Z" fill="white"></path><path d="M10.9645 17.7616L8.88233 20.7787H1.5163C1.11415 20.7787 0.728475 20.6197 0.444114 20.3368C0.159752 20.0539 0 19.6702 0 19.2701C0 18.8701 0.159752 18.4864 0.444114 18.2035C0.728475 17.9206 1.11415 17.7616 1.5163 17.7616H10.9645Z" fill="white"></path><path d="M34.5534 19.2701C34.5534 19.6702 34.3936 20.0539 34.1093 20.3368C33.8249 20.6197 33.4392 20.7787 33.0371 20.7787H20.1153L22.1954 17.7616H33.0351C33.2343 17.7611 33.4316 17.7997 33.6158 17.8752C33.8 17.9506 33.9674 18.0615 34.1084 18.2015C34.2495 18.3414 34.3614 18.5077 34.4377 18.6907C34.5141 18.8737 34.5534 19.07 34.5534 19.2681V19.2701Z" fill="white"></path><path d="M14.5362 12.581L12.4541 15.6001H1.51576C1.12291 15.5858 0.75093 15.4205 0.478067 15.139C0.205204 14.8575 0.0527344 14.4816 0.0527344 14.0905C0.0527344 13.6995 0.205204 13.3236 0.478067 13.0421C0.75093 12.7605 1.12291 12.5953 1.51576 12.581H14.5362Z" fill="white"></path><path d="M34.5522 14.0915C34.5522 14.4916 34.3925 14.8753 34.1081 15.1582C33.8237 15.4411 33.4381 15.6001 33.0359 15.6001H23.6844L25.7746 12.581H33.0419C33.4432 12.5831 33.8274 12.7432 34.1104 13.0263C34.3934 13.3093 34.5522 13.6923 34.5522 14.0915Z" fill="white"></path></svg>